_________________________  Visit us at _________________________
  
http://p2pdl.com  ____________________________  http://p2pdl.com

 
http://www.shotpix.com/images/63772952885754297953.jpg

Gangs of Wasseypur 2 2012 BRRip 720p x264 Hindi ESubs - ViZNU

Genre: Action | Crime | Drama | History | Thriller
Plot: Shahid Khan's vow to get his father's honor back turns 
him into the most feared man in the Indian town of Wasseypur.
Director: Anurag Kashyap
Stars:  Manoj Bajpayee, Richa Chadda, Nawazuddin Siddiqui
Rated: N/A

Info: 
http://www.imdb.com/title/tt1954470/
 
http://www.rottentomatoes.com/m/gangs_of_wasseypur/

General
Complete name                  : Gangs of Wasseypur 2 2012 BRRip 720p x264 Hindi ESubs - ViZNU.mp4
Format                         : MPEG-4
Format profile                 : Base Media
Codec ID                       : isom
File size                      : 851 MiB
Duration                       : 2h 39mn
Overall bit rate mode          : Variable
Overall bit rate               : 744 Kbps

Source                         : 720p BluRay DDR (Thanks)

Video
ID                             : 1
Format                         : AVC
Format/Info                    : Advanced Video Codec
Bit rate                       : 661 Kbps
Maximum bit rate               : 7 590 Kbps
Width                          : 1 280 pixels
Height                         : 544 pixels
Display aspect ratio           : 2.35:1
Frame rate mode                : Constant
Frame rate                     : 24.000 fps
Color space                    : YUV
Chroma subsampling             : 4:2:0
Bit depth                      : 10 bits
Scan type                      : Progressive
Bits/(Pixel*Frame)             : 0.040
Stream size                    : 756 MiB (89%)
Writing library                : x264 core 129 r2245 bc13772

Audio
Format                         : AAC
Bit rate mode                  : Variable
Bit rate                       : 79.6 Kbps
Channel(s)                     : 2 channels
Channel positions              : Front: L R
Sampling rate                  : 48.0 KHz / 24.0 KHz
Compression mode               : Lossy
Stream size                    : 91.1 MiB (11%)
Language                       : Hindi

Subtitle                       : Yes ( English)


Screens: 
http://www.shotpix.com/images/82161082744892521210.jpg 
http://www.shotpix.com/images/44388883557982326469.jpg 
http://www.shotpix.com/images/49527468843483629534.jpg 
http://www.shotpix.com/images/92237790769408085609.jpg

Thumbs: 
http://www.shotpix.com/images/03698815089854210621.jpg
----------------------------------------------------------------------------------------------------

Recommend to you to use latest version of VLC player. Install K-Lite Codec Pack or shark007 codecs
in case of any kind of problem in playback (For non-VLC Media Player users). Alternatively, install
Core AVC codecs, the fastest decoder that there is coupled with Community Center Codec Pack and play
on Windows Media Player Classic. Check sample to be sure.
Enjoy!

Greets to: VYTO, a2zRG, MusiK_KinG, Kuroyukihime, TorDigger, Ash968, StyLishSaLH, Masta and staff members at
ExtraTorrent, TPB, H33T, KAT, 1337x, PublicHD, Ahashare, BTScene, SilverTorrent, LimeTorrents, TorrentMafia,
P2PDL, and all others.

Encoder Notes: Looking For Early Access To Anything You Can Provide DVDScr, R5, DVDR, BluRay, Direct
Audio, Early Music Releases, Seedboxes, Dedicated Servers anything u can provide, Advance / Promo CDs/
DVDs. If You Got anything to offer contact me at "prg@hush.com".